<?xml version="1.0" standalone="no"?>
<!DOCTYPE svg PUBLIC "-//W3C//DTD SVG 20010904//EN"
 "http://www.w3.org/TR/2001/REC-SVG-20010904/DTD/svg10.dtd">
<svg version="1.0" xmlns="http://www.w3.org/2000/svg"
 width="225.000000pt" height="225.000000pt" viewBox="0 0 225.000000 225.000000"
 preserveAspectRatio="xMidYMid meet">
<metadata>
Created by potrace 1.16, written by Peter Selinger 2001-2019
</metadata>
<g transform="translate(0.000000,225.000000) scale(0.100000,-0.100000)"
fill="#000000" stroke="none">
<path d="M0 1125 l0 -1125 1125 0 1125 0 0 1125 0 1125 -1125 0 -1125 0 0
-1125z m1584 493 c11 -15 16 -45 16 -85 0 -110 36 -103 -500 -103 -538 0 -500
-8 -500 107 0 112 -42 103 501 103 l468 0 15 -22z m48 -265 c24 -22 26 -153 2
-177 -14 -14 -73 -16 -506 -16 -572 0 -528 -9 -528 103 0 116 -46 107 523 107
442 0 492 -2 509 -17z m-53 -277 c17 -16 21 -31 21 -85 0 -36 -4 -71 -8 -77
-21 -32 -53 -34 -501 -34 -528 0 -491 -8 -491 108 0 37 4 72 8 78 21 32 47 34
498 31 429 -2 453 -3 473 -21z m-387 -273 c14 -13 18 -31 18 -86 0 -112 15
-107 -303 -107 -321 0 -307 -5 -307 103 0 112 -15 107 303 107 238 0 273 -2
289 -17z"/>
</g>
</svg>
