<svg viewBox="0 0 550 200" preserveAspectRatio="xMidYMid meet" class="css-8aabad" id="ahehgfga">
    <!-- <defs id="SvgjsDefs1001">
        <linearGradient id="SvgjsLinearGradient1011">
            <stop id="SvgjsStop1012" stop-color="#905e26" offset="0"></stop>
            <stop id="SvgjsStop1013" stop-color="#f5ec9b" offset="0.5"></stop>
            <stop id="SvgjsStop1014" stop-color="#905e26" offset="1"></stop>
        </linearGradient>
        <linearGradient id="SvgjsLinearGradient1015">
            <stop id="SvgjsStop1016" stop-color="#905e26" offset="0"></stop>
            <stop id="SvgjsStop1017" stop-color="#f5ec9b" offset="0.5"></stop>
            <stop id="SvgjsStop1018" stop-color="#905e26" offset="1"></stop>
        </linearGradient>
    </defs> -->
    <g id="SvgjsG1007" featurekey="DhFEHj-0" transform="matrix(4.772293169715737,0,0,4.772293169715737,-2.8633765845114563,-29.49277324523155)" fill="#fff">
        <path d="M8.18 17.22 c0 1.78 -1.76 3.04 -3.36 3.04 c-1.38 0 -2.22 -0.72 -2.74 -0.72 c-0.24 0 -0.38 0.14 -0.4 0.44 l-0.78 0 l-0.24 -2.78 l0.42 0 c0.3 0 0.5 0.06 0.6 0.36 c0.34 1.08 1.74 1.96 2.82 1.96 c0.86 0 1.4 -0.56 1.4 -1.32 c0 -1 -0.86 -1.44 -2.08 -2.02 c-1.34 -0.64 -3.22 -1.56 -3.22 -3.5 c0 -1.7 1.42 -2.86 3.2 -2.86 c1.38 0 1.82 0.56 2.32 0.56 c0.28 0 0.42 -0.16 0.48 -0.4 l0.78 0 l0.18 2.74 l-0.4 0 c-0.3 0 -0.5 -0.08 -0.62 -0.38 c-0.48 -1.16 -1.42 -1.8 -2.34 -1.8 c-0.82 0 -1.4 0.56 -1.4 1.32 c0 0.88 0.72 1.32 1.78 1.8 c1.22 0.56 3.6 1.5 3.6 3.56 z M17.84 17.5 c0 0.74 0.48 0.9 1.26 0.76 l0 0.84 c-1.94 0.48 -2.86 1.16 -3.36 1.16 c-0.44 0 -0.64 -0.24 -0.6 -0.74 l0.12 -1.48 c-0.42 1.04 -1.28 2.22 -3.08 2.22 c-1.52 0 -3 -0.76 -3 -2.56 c0 -1.92 1.4 -3.1 5.96 -4.04 l-0.02 -1.22 c-0.02 -1.44 -0.22 -1.94 -0.94 -1.94 c-2.7 0 -1.08 3.08 -3.26 3.08 c-0.78 0 -1.14 -0.44 -1.14 -1.06 c0 -1.5 1.98 -2.72 4.54 -2.72 c2.2 0 3.52 0.52 3.52 2.9 l0 4.8 z M13.2 19.08 c1.16 0 1.78 -1.52 1.94 -2.22 l0 -2.5 c-2.96 0.62 -3.22 2.28 -3.22 3.12 c0 0.94 0.48 1.6 1.28 1.6 z M29.759999999999998 18.5 c0 0.5 0.54 0.66 1.26 0.74 l0 0.76 c-1.74 -0.06 -3.46 -0.06 -5.2 0 l0 -0.76 c0.7 -0.06 1.24 -0.24 1.24 -0.74 l0 -5.12 c0 -1.42 -0.12 -2.38 -1.12 -2.38 c-1.26 0 -2.3 1.64 -2.5 2.1 l0 5.4 c0 0.5 0.54 0.68 1.26 0.74 l0 0.76 c-1.74 -0.06 -3.46 -0.06 -5.2 0 l0 -0.76 c0.7 -0.08 1.24 -0.24 1.24 -0.74 l0 -9.48 c0 -0.74 -0.48 -0.9 -1.24 -0.78 l0 -0.76 c1.98 -0.4 2.86 -1.3 3.38 -1.3 c0.42 0 0.56 0.22 0.56 0.68 l0 3.88 l-0.18 1.34 c0.46 -0.7 1.62 -2.28 3.5 -2.28 c1.56 0 3 0.66 3 3.48 l0 5.22 z M40.480000000000004 17.5 c0 0.74 0.48 0.9 1.26 0.76 l0 0.84 c-1.94 0.48 -2.86 1.16 -3.36 1.16 c-0.44 0 -0.64 -0.24 -0.6 -0.74 l0.12 -1.48 c-0.42 1.04 -1.28 2.22 -3.08 2.22 c-1.52 0 -3 -0.76 -3 -2.56 c0 -1.92 1.4 -3.1 5.96 -4.04 l-0.02 -1.22 c-0.02 -1.44 -0.22 -1.94 -0.94 -1.94 c-2.7 0 -1.08 3.08 -3.26 3.08 c-0.78 0 -1.14 -0.44 -1.14 -1.06 c0 -1.5 1.98 -2.72 4.54 -2.72 c2.2 0 3.52 0.52 3.52 2.9 l0 4.8 z M35.84 19.08 c1.16 0 1.78 -1.52 1.94 -2.22 l0 -2.5 c-2.96 0.62 -3.22 2.28 -3.22 3.12 c0 0.94 0.48 1.6 1.28 1.6 z M52.76 9.98 l0 0.76 l-0.6 0.06 c-0.58 0.06 -0.86 0.44 -1 0.82 l-4.8 12.36 c-0.1 0.26 -0.2 0.4 -0.72 0.4 c-0.62 0 -0.8 -0.14 -0.66 -0.4 c0.32 -0.62 1.86 -3.44 1.86 -3.74 c0 -0.48 -2.48 -5.76 -3.76 -8.62 c-0.18 -0.42 -0.38 -0.78 -0.74 -0.82 l-0.6 -0.06 l0 -0.76 c1.66 0.06 3.54 0.06 5.12 0 l0 0.76 l-0.6 0.06 c-0.42 0.04 -0.64 0.42 -0.46 0.82 l2.38 5.4 l2.06 -5.4 c0.16 -0.42 -0.18 -0.78 -0.7 -0.82 l-0.66 -0.06 l0 -0.76 c1.24 0.06 2.32 0.06 3.88 0 z M61.42 17.5 c0 0.74 0.48 0.9 1.26 0.76 l0 0.84 c-1.94 0.48 -2.86 1.16 -3.36 1.16 c-0.44 0 -0.64 -0.24 -0.6 -0.74 l0.12 -1.48 c-0.42 1.04 -1.28 2.22 -3.08 2.22 c-1.52 0 -3 -0.76 -3 -2.56 c0 -1.92 1.4 -3.1 5.96 -4.04 l-0.02 -1.22 c-0.02 -1.44 -0.22 -1.94 -0.94 -1.94 c-2.7 0 -1.08 3.08 -3.26 3.08 c-0.78 0 -1.14 -0.44 -1.14 -1.06 c0 -1.5 1.98 -2.72 4.54 -2.72 c2.2 0 3.52 0.52 3.52 2.9 l0 4.8 z M56.78 19.08 c1.16 0 1.78 -1.52 1.94 -2.22 l0 -2.5 c-2.96 0.62 -3.22 2.28 -3.22 3.12 c0 0.94 0.48 1.6 1.28 1.6 z M71.54 17.84 c0.84 1.1 1.62 1.64 2.4 1.72 l-0.68 0.76 c-1.26 0 -2.66 -0.16 -3.9 -1.74 l-2.34 -2.96 l0 2.88 c0 0.5 0.54 0.68 1.26 0.74 l0 0.76 c-1.74 -0.06 -3.44 -0.08 -5.18 0 l0 -0.76 c0.68 -0.08 1.22 -0.24 1.22 -0.74 l0 -9.48 c0 -0.74 -0.48 -0.9 -1.24 -0.78 l0 -0.76 c1.98 -0.4 2.86 -1.3 3.4 -1.3 c0.4 0 0.54 0.22 0.54 0.68 l0 7.6 c1.16 -0.86 2.04 -1.86 2.7 -2.82 c0.28 -0.42 -0.04 -0.76 -0.86 -0.84 l0 -0.82 c1.48 0.06 2.94 0.06 4.42 0 l0 0.82 c-0.78 0.08 -1.18 0.32 -1.84 0.88 l-2.76 2.38 z"></path>
    </g>
    <g id="SvgjsG1008" featurekey="aJrulJ-0" transform="matrix(1.2728661428585202,0,0,1.2728661428585202,69.97454300489576,90.02471839780216)" fill="#fff">
        <path d="M8 5.84 l6.06 14.16 l-2.24 0 l-1.42 -3.5 l-6.74 0 l-1.4 3.5 l-2.24 0 l6.24 -14.16 l1.74 0 z M4.34 14.82 l5.36 0 l-2.64 -6.5 l-0.04 0 z M27.124000000000002 5.84 l0 1.8 l-4.56 0 l0 12.36 l-1.92 0 l0 -12.36 l-4.56 0 l0 -1.8 l11.04 0 z M42.412 5.84 l3.86 6.22 l3.98 -6.22 l2.34 0 l-5.36 8.12 l0 6.04 l-1.92 0 l0 -6.04 l-5.36 -8.12 l2.46 0 z M64.33600000000001 5.48 c2.1066 0 3.8634 0.69998 5.27 2.1 s2.11 3.18 2.11 5.34 c0 1.3733 -0.31334 2.63 -0.94 3.77 s-1.51 2.0366 -2.65 2.69 s-2.4034 0.98 -3.79 0.98 c-1.3733 0 -2.6266 -0.32334 -3.76 -0.97 s-2.02 -1.54 -2.66 -2.68 s-0.96 -2.4034 -0.96 -3.79 c0 -2.1066 0.69 -3.8734 2.07 -5.3 s3.15 -2.14 5.31 -2.14 z M58.996 12.92 c0 1.6 0.49998 2.94 1.5 4.02 s2.28 1.62 3.84 1.62 c1.5333 0 2.8066 -0.53334 3.82 -1.6 s1.52 -2.4134 1.52 -4.04 c0 -1.6133 -0.5 -2.9566 -1.5 -4.03 s-2.2866 -1.61 -3.86 -1.61 c-1.52 0 -2.7866 0.53334 -3.8 1.6 s-1.52 2.4134 -1.52 4.04 z M79.76 5.84 l0 8.74 c0 1.16 0.32334 2.1134 0.97 2.86 s1.51 1.12 2.59 1.12 s1.9433 -0.37334 2.59 -1.12 s0.97 -1.7 0.97 -2.86 l0 -8.74 l1.92 0 l0 9.06 c0 0.97334 -0.23 1.8833 -0.69 2.73 s-1.1133 1.5133 -1.96 2 s-1.79 0.73 -2.83 0.73 c-1.6 0 -2.9134 -0.52334 -3.94 -1.57 s-1.54 -2.3434 -1.54 -3.89 l0 -9.06 l1.92 0 z M100.88400000000001 5.84 c1.3867 0 2.4734 0.34666 3.26 1.04 s1.18 1.6667 1.18 2.92 c0 0.94666 -0.32334 1.7733 -0.97 2.48 s-1.4767 1.1267 -2.49 1.26 l-0.02 0 l4.02 6.46 l-2.4 0 l-3.6 -6.24 l-2.14 0 l0 6.24 l-1.92 0 l0 -14.16 l5.08 0 z M100.32400000000001 12.08 c1 0 1.7433 -0.18336 2.23 -0.55002 s0.73 -0.94332 0.73 -1.73 c0 -1.52 -0.98666 -2.28 -2.96 -2.28 l-2.6 0 l0 4.56 l2.6 0 z M124.892 5.48 c1.84 0 3.2 0.54006 4.08 1.6201 l-1.56 1.42 c-0.24 -0.37334 -0.58 -0.67334 -1.02 -0.9 s-0.94666 -0.34 -1.52 -0.34 c-0.82666 0 -1.49 0.20334 -1.99 0.61 s-0.75 0.93 -0.75 1.57 c0 1.0667 0.70666 1.8133 2.12 2.24 l1.78 0.58 c1 0.32 1.7633 0.76666 2.29 1.34 s0.79 1.36 0.79 2.36 c0 1.3067 -0.46334 2.3634 -1.39 3.17 s-2.1034 1.21 -3.53 1.21 c-2.04 0 -3.5466 -0.65334 -4.52 -1.96 l1.58 -1.36 c0.30666 0.48 0.72666 0.85334 1.26 1.12 s1.1133 0.4 1.74 0.4 c0.78666 0 1.4533 -0.22666 2 -0.68 s0.82 -1.0133 0.82 -1.68 c0 -0.49334 -0.16666 -0.90668 -0.5 -1.24 s-0.93334 -0.63334 -1.8 -0.9 l-1.26 -0.42 c-1.2667 -0.42666 -2.1534 -0.97 -2.66 -1.63 s-0.76 -1.51 -0.76 -2.55 c0 -1.1067 0.44666 -2.0466 1.34 -2.82 s2.0466 -1.16 3.46 -1.16 z M144.716 5.84 l0 1.8 l-7.22 0 l0 4.22 l6.72 0 l0 1.8 l-6.72 0 l0 4.54 l7.58 0 l0 1.8 l-9.5 0 l0 -14.16 l9.14 0 z M156.5 5.84 c1.3867 0 2.4734 0.34666 3.26 1.04 s1.18 1.6667 1.18 2.92 c0 0.94666 -0.32334 1.7733 -0.97 2.48 s-1.4767 1.1267 -2.49 1.26 l-0.02 0 l4.02 6.46 l-2.4 0 l-3.6 -6.24 l-2.14 0 l0 6.24 l-1.92 0 l0 -14.16 l5.08 0 z M155.94 12.08 c1 0 1.7433 -0.18336 2.23 -0.55002 s0.73 -0.94332 0.73 -1.73 c0 -1.52 -0.98666 -2.28 -2.96 -2.28 l-2.6 0 l0 4.56 l2.6 0 z M167.664 5.84 l4.16 11.52 l0.04 0 l4.32 -11.52 l2.1 0 l-5.58 14.16 l-1.8 0 l-5.46 -14.16 l2.22 0 z M185.528 5.84 l0 14.16 l-1.92 0 l0 -14.16 l1.92 0 z M199.29199999999997 5.48 c1 0 1.9367 0.18664 2.81 0.55998 s1.59 0.92 2.15 1.64 l-1.6 1.22 c-0.86666 -1.08 -2.0066 -1.62 -3.42 -1.62 c-1.5333 0 -2.7966 0.54666 -3.79 1.64 s-1.49 2.4666 -1.49 4.12 c0 1.6 0.49 2.92 1.47 3.96 s2.25 1.56 3.81 1.56 s2.7934 -0.63334 3.7 -1.9 l1.62 1.22 c-0.56 0.74666 -1.3067 1.3467 -2.24 1.8 s-1.9733 0.68 -3.12 0.68 c-1.36 0 -2.5934 -0.33 -3.7 -0.99 s-1.98 -1.5667 -2.62 -2.72 s-0.96 -2.3634 -0.96 -3.63 c0 -2.1866 0.68666 -3.99 2.06 -5.41 s3.1466 -2.13 5.32 -2.13 z M219.636 5.84 l0 1.8 l-7.22 0 l0 4.22 l6.72 0 l0 1.8 l-6.72 0 l0 4.54 l7.58 0 l0 1.8 l-9.5 0 l0 -14.16 l9.14 0 z"></path>
    </g>
</svg>